<svg width="45" height="45" viewBox="0 0 45 45" fill="none" xmlns="http://www.w3.org/2000/svg">
<rect x="1.5" y="1.5" width="42" height="42" rx="21" fill="white" stroke="#637EA6" stroke-width="3"/>
<path d="M26.1037 14.3332C27.4908 15.2029 28.4635 16.6747 28.6406 18.383C29.2063 18.6473 29.8341 18.7993 30.4998 18.7993C32.93 18.7993 34.8997 16.8297 34.8997 14.3999C34.8997 11.9697 32.93 10 30.4998 10C28.0928 10.0007 26.1404 11.9352 26.1037 14.3332ZM23.2213 23.3418C25.6514 23.3418 27.6211 21.3718 27.6211 18.942C27.6211 16.5122 25.6511 14.5425 23.2213 14.5425C20.7915 14.5425 18.8207 16.5125 18.8207 18.9423C18.8207 21.3721 20.7915 23.3418 23.2213 23.3418ZM25.0876 23.6417H21.3542C18.2478 23.6417 15.7207 26.1692 15.7207 29.2756V33.8413L15.7323 33.9128L16.0468 34.0112C19.0112 34.9375 21.5867 35.2463 23.7065 35.2463C27.8469 35.2463 30.2467 34.0659 30.3946 33.9906L30.6885 33.842H30.72V29.2756C30.7211 26.1692 28.1939 23.6417 25.0876 23.6417ZM32.3669 19.0996H28.6623C28.6222 20.5818 27.9895 21.9165 26.9888 22.8765C29.7499 23.6975 31.7701 26.258 31.7701 29.2823V30.6893C35.4279 30.5552 37.5358 29.5185 37.6747 29.4489L37.9685 29.2999H38V24.7327C38 21.6267 35.4729 19.0996 32.3669 19.0996ZM15.5009 18.8001C16.3617 18.8001 17.1625 18.5489 17.8409 18.1209C18.0565 16.7143 18.8106 15.4852 19.8877 14.6481C19.8922 14.5657 19.9 14.4841 19.9 14.401C19.9 11.9708 17.93 10.0011 15.5009 10.0011C13.0704 10.0011 11.1011 11.9708 11.1011 14.401C11.1011 16.83 13.0704 18.8001 15.5009 18.8001ZM19.4523 22.8765C18.4564 21.9214 17.8259 20.5938 17.7799 19.1206C17.6425 19.1104 17.5066 19.0996 17.3665 19.0996H13.6335C10.5271 19.0996 8 21.6267 8 24.7327V29.2991L8.01161 29.3695L8.3261 29.4687C10.7042 30.2112 12.8267 30.5534 14.6702 30.6612V29.2823C14.6709 26.258 16.6904 23.6982 19.4523 22.8765Z" fill="#FFC30B"/>
</svg>
