<svg width="45" height="45" viewBox="0 0 45 45" fill="none" xmlns="http://www.w3.org/2000/svg">
<rect x="1.5" y="1.5" width="42" height="42" rx="21" fill="white" stroke="#637EA6" stroke-width="3"/>
<path d="M35.2279 12.6911C34.8307 12.2932 34.1863 12.2925 33.7891 12.6894L21.5814 24.8648L17.177 20.0811C16.7964 19.668 16.1529 19.6412 15.7391 20.0217C15.3256 20.4023 15.2991 21.0461 15.6797 21.4596L20.8016 27.0221C20.9892 27.2259 21.2517 27.3443 21.5285 27.3501C21.5359 27.3504 21.5431 27.3504 21.5502 27.3504C21.8192 27.3504 22.078 27.2436 22.2686 27.0536L35.2259 14.1303C35.6241 13.7334 35.6248 13.089 35.2279 12.6911Z" fill="#FFC30B"/>
<path d="M34.9824 21.4824C34.4203 21.4824 33.9648 21.9379 33.9648 22.5C33.9648 28.822 28.822 33.9648 22.5 33.9648C16.1784 33.9648 11.0352 28.822 11.0352 22.5C11.0352 16.1784 16.1784 11.0352 22.5 11.0352C23.062 11.0352 23.5176 10.5797 23.5176 10.0176C23.5176 9.45552 23.062 9 22.5 9C15.056 9 9 15.056 9 22.5C9 29.9437 15.056 36 22.5 36C29.9437 36 36 29.9437 36 22.5C36 21.938 35.5445 21.4824 34.9824 21.4824Z" fill="#FFC30B"/>
</svg>
