<svg width="45" height="45" viewBox="0 0 45 45" fill="none" xmlns="http://www.w3.org/2000/svg">
<rect x="1.5" y="1.5" width="42" height="42" rx="21" fill="white" stroke="#637EA6" stroke-width="3"/>
<g clip-path="url(#clip0)">
<path d="M35.0484 16.1004C34.1478 15.5802 32.9915 15.8902 32.4713 16.7909L30.7975 19.6906V17.2891C30.7975 17.0411 30.5962 16.8398 30.3483 16.8398C30.0998 16.8398 29.899 17.0411 29.899 17.2891V21.2422V21.2462L24.9653 29.7917C24.9338 29.8456 24.9145 29.9058 24.9078 29.9683L24.57 33.1016H13.9069V11.8984H29.899V13.2461C29.899 13.4941 30.0998 13.6953 30.3483 13.6953C30.5962 13.6953 30.7975 13.4941 30.7975 13.2461V11.4492C30.7975 11.2013 30.5962 11 30.3483 11H13.4576C13.2092 11 13.0084 11.2013 13.0084 11.4492V33.5508C13.0084 33.7987 13.2092 34 13.4576 34H30.3483C30.5962 34 30.7975 33.7987 30.7975 33.5508V27.237L35.7393 18.6776C36.2591 17.7769 35.9496 16.6206 35.0484 16.1004ZM25.7272 30.7504L27.0223 31.4979L25.529 32.5886L25.7272 30.7504ZM29.899 33.1016H26.3502L28.1094 31.8163C28.1597 31.7795 28.2019 31.7323 28.2333 31.6784L29.899 28.7936V33.1016ZM27.6799 30.8402L25.9679 29.8519L32.5431 18.4638L34.2547 19.4521L27.6799 30.8402ZM34.9608 18.2284L34.7039 18.674L32.9924 17.6857L33.2493 17.2401C33.5215 16.7684 34.1275 16.6062 34.5992 16.8785C35.0714 17.1512 35.2335 17.7567 34.9608 18.2284Z" fill="#FFC30B"/>
<path d="M30.3483 14.8184C30.2297 14.8184 30.1142 14.8664 30.0307 14.95C29.9471 15.0335 29.899 15.1494 29.899 15.2676C29.899 15.3862 29.9471 15.5016 30.0307 15.5852C30.1142 15.6687 30.2301 15.7168 30.3483 15.7168C30.4664 15.7168 30.5823 15.6687 30.6659 15.5852C30.7494 15.5016 30.7975 15.3857 30.7975 15.2676C30.7975 15.1494 30.7494 15.0335 30.6659 14.95C30.5823 14.8664 30.4669 14.8184 30.3483 14.8184Z" fill="#FFC30B"/>
<path d="M26.44 15.7617H17.3658C17.1174 15.7617 16.9166 15.963 16.9166 16.2109C16.9166 16.4589 17.1174 16.6602 17.3658 16.6602H26.44C26.688 16.6602 26.8893 16.4589 26.8893 16.2109C26.8893 15.963 26.688 15.7617 26.44 15.7617Z" fill="#FFC30B"/>
<path d="M26.44 18.2773H17.3658C17.1174 18.2773 16.9166 18.4786 16.9166 18.7266C16.9166 18.9745 17.1174 19.1758 17.3658 19.1758H26.44C26.688 19.1758 26.8893 18.9745 26.8893 18.7266C26.8893 18.4786 26.688 18.2773 26.44 18.2773Z" fill="#FFC30B"/>
<path d="M26.44 20.793H23.1046C22.8562 20.793 22.6554 20.9942 22.6554 21.2422C22.6554 21.4902 22.8562 21.6914 23.1046 21.6914H26.44C26.688 21.6914 26.8893 21.4902 26.8893 21.2422C26.8893 20.9942 26.688 20.793 26.44 20.793Z" fill="#FFC30B"/>
<path d="M26.8893 23.7578C26.8893 23.5098 26.688 23.3086 26.44 23.3086H17.3658C17.1174 23.3086 16.9166 23.5098 16.9166 23.7578C16.9166 24.0058 17.1174 24.207 17.3658 24.207H26.44C26.688 24.207 26.8893 24.0058 26.8893 23.7578Z" fill="#FFC30B"/>
<path d="M24.9576 26.2734C24.9576 26.0255 24.7564 25.8242 24.5084 25.8242H21.7008C21.4524 25.8242 21.2516 26.0255 21.2516 26.2734C21.2516 26.5214 21.4524 26.7227 21.7008 26.7227H24.5084C24.7564 26.7227 24.9576 26.5214 24.9576 26.2734Z" fill="#FFC30B"/>
<path d="M17.3658 29.2383H21.319C21.5669 29.2383 21.7682 29.037 21.7682 28.7891C21.7682 28.5411 21.5669 28.3398 21.319 28.3398H17.3658C17.1174 28.3398 16.9166 28.5411 16.9166 28.7891C16.9166 29.037 17.1174 29.2383 17.3658 29.2383Z" fill="#FFC30B"/>
<path d="M17.3658 21.6914H20.3603C20.6088 21.6914 20.8096 21.4902 20.8096 21.2422C20.8096 20.9942 20.6088 20.793 20.3603 20.793H17.3658C17.1174 20.793 16.9166 20.9942 16.9166 21.2422C16.9166 21.4902 17.1174 21.6914 17.3658 21.6914Z" fill="#FFC30B"/>
<path d="M17.3658 26.7227H19.6793C19.9273 26.7227 20.1285 26.5214 20.1285 26.2734C20.1285 26.0255 19.9273 25.8242 19.6793 25.8242H17.3658C17.1174 25.8242 16.9166 26.0255 16.9166 26.2734C16.9166 26.5214 17.1174 26.7227 17.3658 26.7227Z" fill="#FFC30B"/>
</g>
<defs>
<clipPath id="clip0">
<rect width="23" height="23" fill="white" transform="translate(13 11)"/>
</clipPath>
</defs>
</svg>
