<svg width="89" height="89" viewBox="0 0 89 89" fill="none" xmlns="http://www.w3.org/2000/svg">
<path d="M44.5001 87.3853C68.185 87.3853 87.3854 68.1849 87.3854 44.5C87.3854 20.815 68.185 1.61462 44.5001 1.61462C20.8152 1.61462 1.61475 20.815 1.61475 44.5C1.61475 68.1849 20.8152 87.3853 44.5001 87.3853Z" fill="#B2CEFF"/>
<path d="M30.2264 42.7562C34.2928 42.7562 37.5892 39.1706 37.5892 34.7475C37.5892 30.3244 34.2928 26.7388 30.2264 26.7388C26.16 26.7388 22.8635 30.3244 22.8635 34.7475C22.8635 39.1706 26.16 42.7562 30.2264 42.7562Z" fill="white"/>
<path d="M58.3628 42.0174C62.4292 42.0174 65.7257 38.4318 65.7257 34.0087C65.7257 29.5856 62.4292 26 58.3628 26C54.2965 26 51 29.5856 51 34.0087C51 38.4318 54.2965 42.0174 58.3628 42.0174Z" fill="white"/>
<path d="M63.876 63.8114C57.0298 53.09 42.8208 49.8607 32.0349 56.7069C29.1931 58.5153 26.7388 60.9696 24.9304 63.8114C24.4783 64.5864 24.672 65.5552 25.4471 66.0719C26.2221 66.5886 27.1909 66.3302 27.7076 65.5552C33.585 56.3193 45.7918 53.6067 55.0922 59.4195C57.5465 60.9696 59.6133 63.1009 61.2279 65.5552C61.68 66.3302 62.7134 66.524 63.4884 66.0719C64.2635 65.6198 64.3927 64.5864 63.876 63.8114Z" fill="white"/>
<path d="M58.6445 25.1241C53.6713 25.1241 49.667 29.4514 49.667 34.7475C49.667 40.0436 53.6713 44.3709 58.6445 44.3709C63.6176 44.3709 67.622 40.0436 67.622 34.7475C67.622 29.4514 63.5531 25.1241 58.6445 25.1241ZM58.6445 41.1416C55.4798 41.1416 52.8963 38.2352 52.8963 34.7475C52.8963 31.2599 55.4798 28.3535 58.6445 28.3535C61.8092 28.3535 64.3927 31.2599 64.3927 34.7475C64.3927 38.2352 61.8092 41.1416 58.6445 41.1416Z" fill="white"/>
<path d="M30.2265 25.1241C25.2534 25.1241 21.249 29.4514 21.249 34.7475C21.249 40.0436 25.2534 44.3709 30.2265 44.3709C35.1997 44.3709 39.204 40.0436 39.204 34.7475C39.204 29.4514 35.1997 25.1241 30.2265 25.1241ZM30.2265 41.1416C27.0618 41.1416 24.4783 38.2352 24.4783 34.7475C24.4783 31.2599 27.0618 28.3535 30.2265 28.3535C33.3913 28.3535 35.9747 31.2599 35.9747 34.7475C35.9747 38.2352 33.3913 41.1416 30.2265 41.1416Z" fill="white"/>
<path d="M44.5 0C19.8926 0 0 19.9572 0 44.5C0 69.0428 19.9572 89 44.5 89C69.1074 89 89 69.0428 89 44.5C89 19.9572 69.1074 0 44.5 0ZM44.5 85.8353C21.701 85.8353 3.22932 67.3636 3.22932 44.5646C3.22932 21.7656 21.701 3.2939 44.5 3.2939C67.299 3.2939 85.7707 21.7656 85.7707 44.5646C85.7707 67.299 67.299 85.7707 44.5 85.8353Z" fill="white"/>
</svg>
