<svg width="384" height="54" viewBox="0 0 384 54" fill="none" xmlns="http://www.w3.org/2000/svg">
<g filter="url(#filter0_d)">
<path d="M12.4714 35H11.3242L16.8575 17.253L22.4245 35H21.2774L16.8575 20.9644L12.4714 35Z" fill="#5085E6"/>
<path d="M25.9025 33.8866H33.6625V35H24.7891V17.2193H25.9025V33.8866ZM44.9477 18.3664H41.0677V33.8866H44.9477V35H36.0742V33.8866H39.9543V18.3664H36.0742V17.253H44.9477V18.3664ZM55.0843 17.253H56.1977V30.5464C56.1977 31.7835 55.7591 32.8407 54.8819 33.7179C54.0271 34.5726 52.9812 35 51.7441 35C50.5295 35 49.4835 34.5726 48.6063 33.7179C47.7516 32.8407 47.3242 31.7835 47.3242 30.5464V17.253H48.4376V30.5464C48.4376 31.4686 48.7638 32.2559 49.4161 32.9082C50.0684 33.5604 50.8444 33.8866 51.7441 33.8866C52.6663 33.8866 53.4536 33.5604 54.1058 32.9082C54.7581 32.2559 55.0843 31.4686 55.0843 30.5464V17.253ZM65.2209 26.1265L71.9013 17.253V35H70.7879V20.5595L65.2209 27.9822L59.6876 20.5595V35H58.5742V17.253L65.2209 26.1265ZM84.7305 28.9944V27.881H93.6039V28.9944H84.7305ZM106.457 17.253H115.331V18.3664H111.45V35H110.337V18.3664H106.457V17.253ZM118.989 25.2156C119.866 24.3383 120.912 23.8997 122.127 23.8997C123.364 23.8997 124.41 24.3383 125.265 25.2156C126.142 26.0703 126.581 27.1162 126.581 28.3533V30.5464C126.581 31.7835 126.142 32.8407 125.265 33.7179C124.41 34.5726 123.364 35 122.127 35C120.912 35 119.866 34.5726 118.989 33.7179C118.134 32.8407 117.707 31.7835 117.707 30.5464V28.3533C117.707 27.1162 118.134 26.0703 118.989 25.2156ZM120.069 33.1781C120.676 33.6504 121.362 33.8866 122.127 33.8866C122.914 33.8866 123.6 33.6504 124.185 33.1781C124.792 32.7057 125.186 32.1097 125.366 31.3899C125.433 31.12 125.467 30.8388 125.467 30.5464V28.3533C125.467 28.0609 125.433 27.7798 125.366 27.5098C125.186 26.7901 124.792 26.194 124.185 25.7216C123.6 25.2493 122.914 25.0131 122.127 25.0131C121.362 25.0131 120.676 25.2493 120.069 25.7216C119.484 26.194 119.102 26.7901 118.922 27.5098C118.854 27.7798 118.82 28.0609 118.82 28.3533V30.5464C118.82 30.8388 118.854 31.12 118.922 31.3899C119.102 32.1097 119.484 32.7057 120.069 33.1781ZM137.163 32.7732C137.163 33.0656 137.264 33.3243 137.466 33.5492C137.691 33.7741 137.961 33.8866 138.276 33.8866V35C137.781 35 137.331 34.8538 136.926 34.5614C136.544 34.2465 136.285 33.8529 136.15 33.3805C135.251 34.4602 134.115 35 132.743 35C131.506 35 130.448 34.5726 129.571 33.7179C128.716 32.8407 128.289 31.7835 128.289 30.5464V28.3196C128.289 27.105 128.716 26.0703 129.571 25.2156C130.448 24.3383 131.506 23.8997 132.743 23.8997C134.07 23.8997 135.172 24.3946 136.049 25.3843V17.2193H137.163V32.7732ZM130.381 32.9082C131.033 33.5604 131.809 33.8866 132.709 33.8866C133.631 33.8866 134.418 33.5604 135.071 32.9082C135.723 32.2559 136.049 31.4686 136.049 30.5464V28.3196C136.049 27.3974 135.723 26.6214 135.071 25.9916C134.418 25.3393 133.631 25.0131 132.709 25.0131C131.809 25.0131 131.033 25.3393 130.381 25.9916C129.729 26.6214 129.402 27.3974 129.402 28.3196V30.5464C129.402 31.4686 129.729 32.2559 130.381 32.9082ZM141.243 25.2156C142.12 24.3383 143.166 23.8997 144.381 23.8997C145.618 23.8997 146.664 24.3383 147.519 25.2156C148.396 26.0703 148.834 27.1162 148.834 28.3533V30.5464C148.834 31.7835 148.396 32.8407 147.519 33.7179C146.664 34.5726 145.618 35 144.381 35C143.166 35 142.12 34.5726 141.243 33.7179C140.388 32.8407 139.961 31.7835 139.961 30.5464V28.3533C139.961 27.1162 140.388 26.0703 141.243 25.2156ZM142.323 33.1781C142.93 33.6504 143.616 33.8866 144.381 33.8866C145.168 33.8866 145.854 33.6504 146.439 33.1781C147.046 32.7057 147.44 32.1097 147.62 31.3899C147.687 31.12 147.721 30.8388 147.721 30.5464V28.3533C147.721 28.0609 147.687 27.7798 147.62 27.5098C147.44 26.7901 147.046 26.194 146.439 25.7216C145.854 25.2493 145.168 25.0131 144.381 25.0131C143.616 25.0131 142.93 25.2493 142.323 25.7216C141.738 26.194 141.356 26.7901 141.176 27.5098C141.108 27.7798 141.074 28.0609 141.074 28.3533V30.5464C141.074 30.8388 141.108 31.12 141.176 31.3899C141.356 32.1097 141.738 32.7057 142.323 33.1781ZM156.076 28.3533C156.998 28.3533 157.786 28.6795 158.438 29.3318C159.09 29.9616 159.416 30.7376 159.416 31.6598C159.416 32.582 159.09 33.3693 158.438 34.0216C157.786 34.6739 156.998 35 156.076 35H150.543V33.8866H156.076C156.706 33.8866 157.235 33.6729 157.662 33.2455C158.089 32.8182 158.303 32.3008 158.303 31.6935C158.303 31.0637 158.089 30.5351 157.662 30.1078C157.235 29.6804 156.706 29.4667 156.076 29.4667H153.31C152.545 29.4667 151.893 29.1968 151.353 28.657C150.813 28.0947 150.543 27.4311 150.543 26.6664C150.543 25.9016 150.813 25.2493 151.353 24.7095C151.893 24.1696 152.545 23.8997 153.31 23.8997H156.65V25.0131H153.31C152.86 25.0131 152.466 25.1818 152.129 25.5192C151.814 25.8341 151.656 26.2277 151.656 26.7001C151.656 27.15 151.814 27.5436 152.129 27.881C152.466 28.1959 152.86 28.3533 153.31 28.3533H156.076ZM172.849 25.2156C173.726 24.3383 174.772 23.8997 175.986 23.8997C177.223 23.8997 178.269 24.3383 179.124 25.2156C180.001 26.0703 180.44 27.1162 180.44 28.3533V30.5464C180.44 31.7835 180.001 32.8407 179.124 33.7179C178.269 34.5726 177.223 35 175.986 35C174.772 35 173.726 34.5726 172.849 33.7179C171.994 32.8407 171.566 31.7835 171.566 30.5464V28.3533C171.566 27.1162 171.994 26.0703 172.849 25.2156ZM173.928 33.1781C174.535 33.6504 175.222 33.8866 175.986 33.8866C176.774 33.8866 177.46 33.6504 178.044 33.1781C178.652 32.7057 179.045 32.1097 179.225 31.3899C179.293 31.12 179.326 30.8388 179.326 30.5464V28.3533C179.326 28.0609 179.293 27.7798 179.225 27.5098C179.045 26.7901 178.652 26.194 178.044 25.7216C177.46 25.2493 176.774 25.0131 175.986 25.0131C175.222 25.0131 174.535 25.2493 173.928 25.7216C173.343 26.194 172.961 26.7901 172.781 27.5098C172.714 27.7798 172.68 28.0609 172.68 28.3533V30.5464C172.68 30.8388 172.714 31.12 172.781 31.3899C172.961 32.1097 173.343 32.7057 173.928 33.1781ZM187.682 28.3533C188.604 28.3533 189.391 28.6795 190.043 29.3318C190.696 29.9616 191.022 30.7376 191.022 31.6598C191.022 32.582 190.696 33.3693 190.043 34.0216C189.391 34.6739 188.604 35 187.682 35H182.148V33.8866H187.682C188.312 33.8866 188.84 33.6729 189.267 33.2455C189.695 32.8182 189.909 32.3008 189.909 31.6935C189.909 31.0637 189.695 30.5351 189.267 30.1078C188.84 29.6804 188.312 29.4667 187.682 29.4667H184.915C184.15 29.4667 183.498 29.1968 182.958 28.657C182.418 28.0947 182.148 27.4311 182.148 26.6664C182.148 25.9016 182.418 25.2493 182.958 24.7095C183.498 24.1696 184.15 23.8997 184.915 23.8997H188.255V25.0131H184.915C184.465 25.0131 184.072 25.1818 183.734 25.5192C183.419 25.8341 183.262 26.2277 183.262 26.7001C183.262 27.15 183.419 27.5436 183.734 27.881C184.072 28.1959 184.465 28.3533 184.915 28.3533H187.682ZM212.045 32.7732C212.045 33.0656 212.147 33.3243 212.349 33.5492C212.574 33.7741 212.844 33.8866 213.159 33.8866V35C212.664 35 212.214 34.8538 211.809 34.5614C211.427 34.2465 211.168 33.8529 211.033 33.3805C210.133 34.4602 208.998 35 207.625 35C206.388 35 205.331 34.5726 204.454 33.7179C203.599 32.8407 203.172 31.7835 203.172 30.5464V28.3196C203.172 27.105 203.599 26.0703 204.454 25.2156C205.331 24.3383 206.388 23.8997 207.625 23.8997C208.953 23.8997 210.055 24.3946 210.932 25.3843V17.2193H212.045V32.7732ZM205.264 32.9082C205.916 33.5604 206.692 33.8866 207.592 33.8866C208.514 33.8866 209.301 33.5604 209.954 32.9082C210.606 32.2559 210.932 31.4686 210.932 30.5464V28.3196C210.932 27.3974 210.606 26.6214 209.954 25.9916C209.301 25.3393 208.514 25.0131 207.592 25.0131C206.692 25.0131 205.916 25.3393 205.264 25.9916C204.611 26.6214 204.285 27.3974 204.285 28.3196V30.5464C204.285 31.4686 204.611 32.2559 205.264 32.9082ZM215.957 32.7732C215.957 33.0656 216.058 33.3243 216.261 33.5492C216.486 33.7741 216.756 33.8866 217.071 33.8866V34.9663C216.463 34.9663 215.935 34.7526 215.485 34.3252C215.057 33.8978 214.844 33.3805 214.844 32.7732V23.866H215.957V32.7732ZM214.844 23.3261V21.6729H215.957V23.3261H214.844ZM220.973 28.3533V35H219.859V26.1265C219.859 25.8116 219.747 25.553 219.522 25.3505C219.32 25.1256 219.061 25.0131 218.746 25.0131V23.8997C219.241 23.8997 219.68 24.0572 220.062 24.3721C220.467 24.6645 220.737 25.0469 220.872 25.5192C221.771 24.4396 222.907 23.8997 224.279 23.8997V25.0131C223.38 25.0131 222.604 25.3393 221.951 25.9916C221.299 26.6439 220.973 27.4311 220.973 28.3533ZM227.303 25.283C228.225 24.3608 229.327 23.8997 230.609 23.8997C231.914 23.8997 233.016 24.3608 233.916 25.283C234.838 26.1828 235.299 27.2737 235.299 28.5558V30.3102H227.134C227.134 30.985 227.303 31.6036 227.64 32.1659C227.955 32.6607 228.371 33.0656 228.888 33.3805C229.428 33.6729 230.002 33.8191 230.609 33.8191C231.666 33.8191 232.544 33.4255 233.241 32.6382H234.658C234.253 33.358 233.691 33.9316 232.971 34.359C232.251 34.7863 231.464 35 230.609 35C229.327 35 228.225 34.5389 227.303 33.6167C226.403 32.6945 225.953 31.5923 225.953 30.3102V28.5558C225.953 27.2737 226.403 26.1828 227.303 25.283ZM227.134 29.1293H234.118V28.5558C234.118 27.881 233.949 27.2624 233.612 26.7001C233.297 26.2052 232.87 25.8116 232.33 25.5192C231.813 25.2043 231.239 25.0469 230.609 25.0469C230.002 25.0469 229.428 25.2043 228.888 25.5192C228.371 25.8116 227.955 26.2052 227.64 26.7001C227.303 27.2624 227.134 27.881 227.134 28.5558V28.5895V28.6232V28.657V28.6907V28.7245V28.7582V28.7919V28.8257V29.1293ZM238.106 32.7732C238.106 33.0656 238.207 33.3243 238.409 33.5492C238.634 33.7741 238.904 33.8866 239.219 33.8866V34.9663C238.612 34.9663 238.083 34.7526 237.633 34.3252C237.206 33.8978 236.992 33.3805 236.992 32.7732V23.866H238.106V32.7732ZM236.992 23.3261V21.6729H238.106V23.3261H236.992ZM242.109 31.3899C242.289 32.1097 242.671 32.7057 243.256 33.1781C243.864 33.6504 244.561 33.8866 245.348 33.8866V35C244.111 35 243.054 34.5726 242.177 33.7179C241.322 32.8407 240.895 31.7835 240.895 30.5464V17.253H242.008V23.8997H245.348V25.0131H242.008V30.5464C242.008 30.8388 242.042 31.12 242.109 31.3899ZM248.294 25.2156C249.171 24.3383 250.217 23.8997 251.432 23.8997C252.669 23.8997 253.715 24.3383 254.569 25.2156C255.447 26.0703 255.885 27.1162 255.885 28.3533V30.5464C255.885 31.7835 255.447 32.8407 254.569 33.7179C253.715 34.5726 252.669 35 251.432 35C250.217 35 249.171 34.5726 248.294 33.7179C247.439 32.8407 247.012 31.7835 247.012 30.5464V28.3533C247.012 27.1162 247.439 26.0703 248.294 25.2156ZM249.373 33.1781C249.981 33.6504 250.667 33.8866 251.432 33.8866C252.219 33.8866 252.905 33.6504 253.49 33.1781C254.097 32.7057 254.491 32.1097 254.671 31.3899C254.738 31.12 254.772 30.8388 254.772 30.5464V28.3533C254.772 28.0609 254.738 27.7798 254.671 27.5098C254.491 26.7901 254.097 26.194 253.49 25.7216C252.905 25.2493 252.219 25.0131 251.432 25.0131C250.667 25.0131 249.981 25.2493 249.373 25.7216C248.789 26.194 248.406 26.7901 248.226 27.5098C248.159 27.7798 248.125 28.0609 248.125 28.3533V30.5464C248.125 30.8388 248.159 31.12 248.226 31.3899C248.406 32.1097 248.789 32.7057 249.373 33.1781ZM263.127 28.3533C264.049 28.3533 264.836 28.6795 265.489 29.3318C266.141 29.9616 266.467 30.7376 266.467 31.6598C266.467 32.582 266.141 33.3693 265.489 34.0216C264.836 34.6739 264.049 35 263.127 35H257.594V33.8866H263.127C263.757 33.8866 264.285 33.6729 264.713 33.2455C265.14 32.8182 265.354 32.3008 265.354 31.6935C265.354 31.0637 265.14 30.5351 264.713 30.1078C264.285 29.6804 263.757 29.4667 263.127 29.4667H260.36C259.596 29.4667 258.943 29.1968 258.403 28.657C257.864 28.0947 257.594 27.4311 257.594 26.6664C257.594 25.9016 257.864 25.2493 258.403 24.7095C258.943 24.1696 259.596 23.8997 260.36 23.8997H263.701V25.0131H260.36C259.911 25.0131 259.517 25.1818 259.18 25.5192C258.865 25.8341 258.707 26.2277 258.707 26.7001C258.707 27.15 258.865 27.5436 259.18 27.881C259.517 28.1959 259.911 28.3533 260.36 28.3533H263.127ZM280.844 28.3533V35H279.731V26.1265C279.731 25.8116 279.618 25.553 279.393 25.3505C279.191 25.1256 278.932 25.0131 278.617 25.0131V23.8997C279.112 23.8997 279.551 24.0572 279.933 24.3721C280.338 24.6645 280.608 25.0469 280.743 25.5192C281.642 24.4396 282.778 23.8997 284.15 23.8997V25.0131C283.251 25.0131 282.475 25.3393 281.822 25.9916C281.17 26.6439 280.844 27.4311 280.844 28.3533ZM287.174 25.283C288.096 24.3608 289.198 23.8997 290.48 23.8997C291.785 23.8997 292.887 24.3608 293.787 25.283C294.709 26.1828 295.17 27.2737 295.17 28.5558V30.3102H287.005C287.005 30.985 287.174 31.6036 287.511 32.1659C287.826 32.6607 288.242 33.0656 288.76 33.3805C289.299 33.6729 289.873 33.8191 290.48 33.8191C291.537 33.8191 292.415 33.4255 293.112 32.6382H294.529C294.124 33.358 293.562 33.9316 292.842 34.359C292.122 34.7863 291.335 35 290.48 35C289.198 35 288.096 34.5389 287.174 33.6167C286.274 32.6945 285.824 31.5923 285.824 30.3102V28.5558C285.824 27.2737 286.274 26.1828 287.174 25.283ZM287.005 29.1293H293.989V28.5558C293.989 27.881 293.82 27.2624 293.483 26.7001C293.168 26.2052 292.741 25.8116 292.201 25.5192C291.684 25.2043 291.11 25.0469 290.48 25.0469C289.873 25.0469 289.299 25.2043 288.76 25.5192C288.242 25.8116 287.826 26.2052 287.511 26.7001C287.174 27.2624 287.005 27.881 287.005 28.5558V28.5895V28.6232V28.657V28.6907V28.7245V28.7582V28.7919V28.8257V29.1293ZM302.397 28.3533C303.319 28.3533 304.106 28.6795 304.758 29.3318C305.411 29.9616 305.737 30.7376 305.737 31.6598C305.737 32.582 305.411 33.3693 304.758 34.0216C304.106 34.6739 303.319 35 302.397 35H296.863V33.8866H302.397C303.026 33.8866 303.555 33.6729 303.982 33.2455C304.41 32.8182 304.623 32.3008 304.623 31.6935C304.623 31.0637 304.41 30.5351 303.982 30.1078C303.555 29.6804 303.026 29.4667 302.397 29.4667H299.63C298.865 29.4667 298.213 29.1968 297.673 28.657C297.133 28.0947 296.863 27.4311 296.863 26.6664C296.863 25.9016 297.133 25.2493 297.673 24.7095C298.213 24.1696 298.865 23.8997 299.63 23.8997H302.97V25.0131H299.63C299.18 25.0131 298.786 25.1818 298.449 25.5192C298.134 25.8341 297.977 26.2277 297.977 26.7001C297.977 27.15 298.134 27.5436 298.449 27.881C298.786 28.1959 299.18 28.3533 299.63 28.3533H302.397ZM308.76 25.283C309.682 24.3608 310.784 23.8997 312.066 23.8997C313.371 23.8997 314.473 24.3608 315.373 25.283C316.295 26.1828 316.756 27.2737 316.756 28.5558V30.3102H308.591C308.591 30.985 308.76 31.6036 309.097 32.1659C309.412 32.6607 309.828 33.0656 310.345 33.3805C310.885 33.6729 311.459 33.8191 312.066 33.8191C313.123 33.8191 314.001 33.4255 314.698 32.6382H316.115C315.71 33.358 315.148 33.9316 314.428 34.359C313.708 34.7863 312.921 35 312.066 35C310.784 35 309.682 34.5389 308.76 33.6167C307.86 32.6945 307.41 31.5923 307.41 30.3102V28.5558C307.41 27.2737 307.86 26.1828 308.76 25.283ZM308.591 29.1293H315.575V28.5558C315.575 27.881 315.406 27.2624 315.069 26.7001C314.754 26.2052 314.327 25.8116 313.787 25.5192C313.27 25.2043 312.696 25.0469 312.066 25.0469C311.459 25.0469 310.885 25.2043 310.345 25.5192C309.828 25.8116 309.412 26.2052 309.097 26.7001C308.76 27.2624 308.591 27.881 308.591 28.5558V28.5895V28.6232V28.657V28.6907V28.7245V28.7582V28.7919V28.8257V29.1293ZM320.676 28.3533V35H319.563V26.1265C319.563 25.8116 319.45 25.553 319.225 25.3505C319.023 25.1256 318.764 25.0131 318.449 25.0131V23.8997C318.944 23.8997 319.383 24.0572 319.765 24.3721C320.17 24.6645 320.44 25.0469 320.575 25.5192C321.475 24.4396 322.61 23.8997 323.982 23.8997V25.0131C323.083 25.0131 322.307 25.3393 321.654 25.9916C321.002 26.6439 320.676 27.4311 320.676 28.3533ZM333.349 23.8997H334.53L330.11 35L325.656 23.8997H326.837L330.11 31.9972L333.349 23.8997ZM345.077 32.7732C345.077 33.0881 345.178 33.358 345.38 33.5829C345.605 33.7854 345.875 33.8866 346.19 33.8866V35C345.695 35 345.245 34.8538 344.84 34.5614C344.458 34.2465 344.199 33.8529 344.064 33.3805C343.165 34.4602 342.029 35 340.657 35C339.42 35 338.362 34.5726 337.485 33.7179C336.63 32.8407 336.203 31.7835 336.203 30.5464V28.3533C336.203 27.1162 336.63 26.0703 337.485 25.2156C338.362 24.3383 339.42 23.8997 340.657 23.8997C341.984 23.8997 343.086 24.4058 343.963 25.418V23.8997H345.077V32.7732ZM338.295 32.9082C338.947 33.5604 339.723 33.8866 340.623 33.8866C341.545 33.8866 342.332 33.5604 342.985 32.9082C343.637 32.2559 343.963 31.4686 343.963 30.5464V28.3533C343.963 27.4311 343.637 26.6439 342.985 25.9916C342.332 25.3393 341.545 25.0131 340.623 25.0131C339.723 25.0131 338.947 25.3393 338.295 25.9916C337.643 26.6439 337.317 27.4311 337.317 28.3533V30.5464C337.317 31.4686 337.643 32.2559 338.295 32.9082ZM356.748 32.7732C356.748 33.0656 356.85 33.3243 357.052 33.5492C357.277 33.7741 357.547 33.8866 357.862 33.8866V35C357.367 35 356.917 34.8538 356.512 34.5614C356.13 34.2465 355.871 33.8529 355.736 33.3805C354.837 34.4602 353.701 35 352.329 35C351.091 35 350.034 34.5726 349.157 33.7179C348.302 32.8407 347.875 31.7835 347.875 30.5464V28.3196C347.875 27.105 348.302 26.0703 349.157 25.2156C350.034 24.3383 351.091 23.8997 352.329 23.8997C353.656 23.8997 354.758 24.3946 355.635 25.3843V17.2193H356.748V32.7732ZM349.967 32.9082C350.619 33.5604 351.395 33.8866 352.295 33.8866C353.217 33.8866 354.004 33.5604 354.657 32.9082C355.309 32.2559 355.635 31.4686 355.635 30.5464V28.3196C355.635 27.3974 355.309 26.6214 354.657 25.9916C354.004 25.3393 353.217 25.0131 352.295 25.0131C351.395 25.0131 350.619 25.3393 349.967 25.9916C349.315 26.6214 348.988 27.3974 348.988 28.3196V30.5464C348.988 31.4686 349.315 32.2559 349.967 32.9082ZM360.829 25.2156C361.706 24.3383 362.752 23.8997 363.967 23.8997C365.204 23.8997 366.25 24.3383 367.105 25.2156C367.982 26.0703 368.42 27.1162 368.42 28.3533V30.5464C368.42 31.7835 367.982 32.8407 367.105 33.7179C366.25 34.5726 365.204 35 363.967 35C362.752 35 361.706 34.5726 360.829 33.7179C359.974 32.8407 359.547 31.7835 359.547 30.5464V28.3533C359.547 27.1162 359.974 26.0703 360.829 25.2156ZM361.909 33.1781C362.516 33.6504 363.202 33.8866 363.967 33.8866C364.754 33.8866 365.44 33.6504 366.025 33.1781C366.632 32.7057 367.026 32.1097 367.206 31.3899C367.273 31.12 367.307 30.8388 367.307 30.5464V28.3533C367.307 28.0609 367.273 27.7798 367.206 27.5098C367.026 26.7901 366.632 26.194 366.025 25.7216C365.44 25.2493 364.754 25.0131 363.967 25.0131C363.202 25.0131 362.516 25.2493 361.909 25.7216C361.324 26.194 360.941 26.7901 360.761 27.5098C360.694 27.7798 360.66 28.0609 360.66 28.3533V30.5464C360.66 30.8388 360.694 31.12 360.761 31.3899C360.941 32.1097 361.324 32.7057 361.909 33.1781ZM375.662 28.3533C376.584 28.3533 377.372 28.6795 378.024 29.3318C378.676 29.9616 379.002 30.7376 379.002 31.6598C379.002 32.582 378.676 33.3693 378.024 34.0216C377.372 34.6739 376.584 35 375.662 35H370.129V33.8866H375.662C376.292 33.8866 376.821 33.6729 377.248 33.2455C377.675 32.8182 377.889 32.3008 377.889 31.6935C377.889 31.0637 377.675 30.5351 377.248 30.1078C376.821 29.6804 376.292 29.4667 375.662 29.4667H372.896C372.131 29.4667 371.478 29.1968 370.939 28.657C370.399 28.0947 370.129 27.4311 370.129 26.6664C370.129 25.9016 370.399 25.2493 370.939 24.7095C371.478 24.1696 372.131 23.8997 372.896 23.8997H376.236V25.0131H372.896C372.446 25.0131 372.052 25.1818 371.715 25.5192C371.4 25.8341 371.242 26.2277 371.242 26.7001C371.242 27.15 371.4 27.5436 371.715 27.881C372.052 28.1959 372.446 28.3533 372.896 28.3533H375.662Z" fill="white"/>
</g>
<g filter="url(#filter1_d)">
<path d="M6.625 24.25C13.2437 29.8703 19.2812 27.5067 19.2812 27.5067" stroke="#5085E6" stroke-width="1.5"/>
<path d="M21.625 13L13.1875 19.4093L4.75 25.8187" stroke="#FFC30B"/>
</g>
<defs>
<filter id="filter0_d" x="7.32422" y="17.2193" width="375.678" height="25.7807" filterUnits="userSpaceOnUse" color-interpolation-filters="sRGB">
<feFlood flood-opacity="0" result="BackgroundImageFix"/>
<feColorMatrix in="SourceAlpha" type="matrix" values="0 0 0 0 0 0 0 0 0 0 0 0 0 0 0 0 0 0 127 0"/>
<feOffset dy="4"/>
<feGaussianBlur stdDeviation="2"/>
<feColorMatrix type="matrix" values="0 0 0 0 0 0 0 0 0 0 0 0 0 0 0 0 0 0 0.25 0"/>
<feBlend mode="normal" in2="BackgroundImageFix" result="effect1_dropShadow"/>
<feBlend mode="normal" in="SourceGraphic" in2="effect1_dropShadow" result="shape"/>
</filter>
<filter id="filter1_d" x="0.44751" y="12.6019" width="25.4799" height="24.1481" filterUnits="userSpaceOnUse" color-interpolation-filters="sRGB">
<feFlood flood-opacity="0" result="BackgroundImageFix"/>
<feColorMatrix in="SourceAlpha" type="matrix" values="0 0 0 0 0 0 0 0 0 0 0 0 0 0 0 0 0 0 127 0"/>
<feOffset dy="4"/>
<feGaussianBlur stdDeviation="2"/>
<feColorMatrix type="matrix" values="0 0 0 0 0 0 0 0 0 0 0 0 0 0 0 0 0 0 0.25 0"/>
<feBlend mode="normal" in2="BackgroundImageFix" result="effect1_dropShadow"/>
<feBlend mode="normal" in="SourceGraphic" in2="effect1_dropShadow" result="shape"/>
</filter>
</defs>
</svg>
