<svg width="184" height="86" viewBox="0 0 184 86" fill="none" xmlns="http://www.w3.org/2000/svg">
<path d="M19.059 64H16L30.7554 16.6748L45.6007 64H42.5417L30.7554 26.5717L19.059 64Z" fill="#5085E6"/>
<path d="M54.8753 61.0309H75.5689V64H51.9062V16.5848H54.8753V61.0309ZM105.663 19.6439H95.3158V61.0309H105.663V64H82V61.0309H92.3468V19.6439H82V16.6748H105.663V19.6439ZM132.694 16.6748H135.663V52.1237C135.663 55.4227 134.493 58.2418 132.154 60.5811C129.874 62.8604 127.085 64 123.786 64C120.547 64 117.758 62.8604 115.419 60.5811C113.14 58.2418 112 55.4227 112 52.1237V16.6748H114.969V52.1237C114.969 54.5829 115.839 56.6823 117.578 58.4217C119.318 60.1612 121.387 61.0309 123.786 61.0309C126.246 61.0309 128.345 60.1612 130.084 58.4217C131.824 56.6823 132.694 54.5829 132.694 52.1237V16.6748ZM159.724 40.3374L177.539 16.6748V64H174.57V25.492L159.724 45.2858L144.969 25.492V64H142V16.6748L159.724 40.3374Z" fill="white"/>
<path d="M5.88892 35.25C23.1467 49.8628 38.8889 43.7174 38.8889 43.7174" stroke="#5085E6" stroke-width="1.5"/>
<path d="M45 6L1 39.3286" stroke="#FFC30B"/>
</svg>
