<svg width="90" height="90" viewBox="0 0 90 90" fill="none" xmlns="http://www.w3.org/2000/svg">
<rect x="2.5" y="2.5" width="85" height="85" rx="42.5" fill="white" stroke="#0E2548" stroke-width="5"/>
<path d="M35.7858 61.7372L63.6089 33.914C66.9108 35.0051 70.69 34.2468 73.3165 31.6203C75.4783 29.4585 76.3727 26.5166 76.0136 23.7024L74.7997 22.4886L70.3154 26.9729C68.7157 28.5727 66.1226 28.5724 64.5229 26.9728C62.9235 25.3733 62.9229 22.7799 64.5227 21.1802L69.007 16.6958L67.7933 15.4821C64.9791 15.123 62.0372 16.0174 59.8754 18.1792C57.2489 20.8057 56.4906 24.5849 57.5817 27.8868L29.7585 55.7099C26.4566 54.6189 22.6774 55.3772 20.0509 58.0037C17.8889 60.1657 16.9945 63.1076 17.3536 65.9218L18.5673 67.1355L23.0516 62.6512C24.6514 61.0514 27.2449 61.0516 28.8445 62.6512C30.444 64.2506 30.4441 66.8442 28.8444 68.4439L24.3601 72.9283L25.5739 74.1421C28.3881 74.5012 31.33 73.6068 33.492 71.4448C36.1185 68.8183 36.8768 65.0391 35.7858 61.7372Z" fill="#FFC30B"/>
</svg>
