<svg width="90" height="90" viewBox="0 0 90 90" fill="none" xmlns="http://www.w3.org/2000/svg">
<rect x="2.5" y="2.5" width="85" height="85" rx="42.5" fill="white" stroke="#0E2548" stroke-width="5"/>
<path d="M67.1839 26.4729H24.3127V22.0276H67.1839V26.4729Z" fill="#637EA6"/>
<path d="M26.8126 26.0033V67.9641C26.8126 69.2949 27.9023 70.3837 29.2339 70.3837H62.4194C63.7512 70.3837 64.8407 69.2949 64.8407 67.9641V26.0033H26.8126Z" fill="#637EA6"/>
<path d="M31.5409 45.0613C31.5409 46.8539 32.9952 48.3068 34.7885 48.3068C36.5815 48.3068 38.0356 46.8539 38.0356 45.0613V35.2414C38.0356 33.4492 39.4899 31.9962 41.2837 31.9962C43.0773 31.9962 44.5316 33.4492 44.5316 35.2414V39.283C44.5316 41.0753 45.9849 42.5284 47.7787 42.5284C49.5725 42.5284 51.0262 41.0753 51.0262 39.283V26.0033H31.5409V45.0613Z" fill="#FFC30B"/>
<path d="M26.8121 31.6813H23.5682V42.546" stroke="#4D6180" stroke-width="2.1167" stroke-linecap="round" stroke-linejoin="round"/>
<path d="M23.5682 42.546C23.5682 50.5417 27.1502 57.9436 45.8265 57.9436C64.5025 57.9436 68.0845 50.5417 68.0845 42.546" stroke="#4D6180" stroke-width="2.1167" stroke-linecap="round" stroke-linejoin="round"/>
<path d="M68.0845 42.546V31.6813H64.8407" stroke="#4D6180" stroke-width="2.1167" stroke-linecap="round" stroke-linejoin="round"/>
<path d="M51.0262 21.9493H31.5409V26.3947H51.0262V21.9493Z" fill="#FFC30B"/>
</svg>
