<svg width="90" height="90" viewBox="0 0 90 90" fill="none" xmlns="http://www.w3.org/2000/svg">
<rect x="2.5" y="2.5" width="85" height="85" rx="42.5" fill="white" stroke="#0E2548" stroke-width="5"/>
<path d="M32.1655 45.5708L44.2062 56.1156L48.0189 55.4318L48.1529 51.5607L51.9653 50.8769L52.0991 47.0059L55.9118 46.322L56.0455 42.4509L59.8581 41.7671L59.9918 37.8958L63.8044 37.2123L63.9381 33.341L67.7509 32.6573L67.8845 28.7861L71.6969 28.1024L71.8307 24.2313L75.6433 23.5475L75.7772 19.6764L66.6686 11.785L32.1655 45.5708V45.5708ZM68.6616 21.1884C67.8991 22.0684 66.5673 22.1637 65.6874 21.4011C64.8071 20.6387 64.7118 19.307 65.4743 18.4268C66.2369 17.5466 67.5686 17.4513 68.4488 18.2138C69.329 18.9763 69.4243 20.3081 68.6616 21.1884Z" fill="#637EA6"/>
<path d="M29.5033 45.9693L16.5592 59.2303C16.0797 59.7213 16.1119 60.4908 16.6307 60.9404L18.5942 62.6416C19.113 63.0911 20.0562 63.2438 20.6901 62.9812L22.5098 62.2273C23.1439 61.9646 24.1388 62.0472 24.7205 62.4113L30.8341 66.2362C31.416 66.6001 31.8527 67.4581 31.8048 68.1427L31.6299 70.6341C31.582 71.3187 31.9672 72.2466 32.4859 72.696L33.9222 73.9405C34.441 74.39 35.2108 74.315 35.6333 73.7739L46.1071 60.3555C46.5293 59.8145 46.4505 59.0041 45.9317 58.5547L31.3181 45.8936C30.7993 45.4441 29.9829 45.4782 29.5033 45.9693V45.9693ZM37.7086 58.0897C38.9768 59.1883 39.1142 61.1073 38.0155 62.3755C36.9167 63.6437 34.9978 63.7811 33.7296 62.6824L28.6845 58.3114C27.4163 57.2126 27.2788 55.2937 28.3777 54.0255C29.4765 52.7572 31.3953 52.6198 32.6636 53.7186L37.7086 58.0897Z" fill="#FFC30B"/>
</svg>
