<svg width="300" height="13" viewBox="0 0 300 13" fill="none" xmlns="http://www.w3.org/2000/svg">
<rect width="300" height="4" fill="#B2CEFF"/>
<path d="M26.5 12L32 4H21L26.5 12Z" fill="#B2CEFF"/>
<path d="M13.5 12L21 4H6L13.5 12Z" fill="#B2CEFF"/>
<path d="M0 12L6 4H0V12Z" fill="#B2CEFF"/>
<path d="M38.5 12L45 4H32L38.5 12Z" fill="#B2CEFF"/>
<path d="M49.5 12L56 4H43L49.5 12Z" fill="#B2CEFF"/>
<path d="M60 12L67 4H53L60 12Z" fill="#B2CEFF"/>
<path d="M70.5 12L77 4H64L70.5 12Z" fill="#B2CEFF"/>
<path d="M81.5 12L88 4H75L81.5 12Z" fill="#B2CEFF"/>
<path d="M92 12L99 4H85L92 12Z" fill="#B2CEFF"/>
<path d="M102.5 12L109 4H96L102.5 12Z" fill="#B2CEFF"/>
<path d="M113.5 12L120 4H107L113.5 12Z" fill="#B2CEFF"/>
<path d="M124 12L131 4H117L124 12Z" fill="#B2CEFF"/>
<path d="M134.5 12L141 4H128L134.5 12Z" fill="#B2CEFF"/>
<path d="M146.5 12L152 4H141L146.5 12Z" fill="#B2CEFF"/>
<path d="M157.5 12L163 4H152L157.5 12Z" fill="#B2CEFF"/>
<path d="M168 12L173 4H163L168 12Z" fill="#B2CEFF"/>
<path d="M178 12L183 4H173L178 12Z" fill="#B2CEFF"/>
<path d="M188 12L193 4H183L188 12Z" fill="#B2CEFF"/>
<path d="M198 12L203 4H193L198 12Z" fill="#B2CEFF"/>
<path d="M208 12L213 4H203L208 12Z" fill="#B2CEFF"/>
<path d="M218 12L223 4H213L218 12Z" fill="#B2CEFF"/>
<path d="M228 12L233 4H223L228 12Z" fill="#B2CEFF"/>
<path d="M238 12L243 4H233L238 12Z" fill="#B2CEFF"/>
<path d="M248 12L253 4H243L248 12Z" fill="#B2CEFF"/>
<path d="M268 12L273 4H263L268 12Z" fill="#B2CEFF"/>
<path d="M278 12L283 4H273L278 12Z" fill="#B2CEFF"/>
<path d="M289 12L294 4H284L289 12Z" fill="#B2CEFF"/>
<path d="M300 12.5V4H294L300 12.5Z" fill="#B2CEFF"/>
<path d="M258 12L263 4H253L258 12Z" fill="#B2CEFF"/>
</svg>
